<svg xmlns="http://www.w3.org/2000/svg" xmlns:xlink="http://www.w3.org/1999/xlink" width="393.958" height="287.054" viewBox="0 0 393.958 287.054"><g opacity=".25"><defs><path id="a" d="M0 0h393.958v287.054H0z"/></defs><clipPath id="b"><use xlink:href="#a" overflow="visible"/></clipPath><g opacity=".25" clip-path="url(#b)"><defs><path id="c" d="M0 0h393.958v287.054H0z"/></defs><clipPath id="d"><use xlink:href="#c" overflow="visible"/></clipPath><path clip-path="url(#d)" fill="#FDEF49" d="M0 0h393.958v287.054H0z"/></g></g><defs><path id="e" d="M189.365 87.867h15.23v15.228h-15.23z"/></defs><clipPath id="f"><use xlink:href="#e" overflow="visible"/></clipPath><circle clip-path="url(#f)" stroke="#EBEEA7" stroke-width="1.228" stroke-miterlimit="10" cx="196.978" cy="95.481" r="7" fill="none"/><defs><path id="g" d="M83.988 61.192h24.577V85.77H83.988z"/></defs><clipPath id="h"><use xlink:href="#g" overflow="visible"/></clipPath><circle clip-path="url(#h)" stroke="#EBEEA7" stroke-width="1.228" stroke-miterlimit="10" cx="96.277" cy="73.481" r="11.675" fill="none"/><defs><path id="i" d="M235.455 179.042h48.877v48.878h-48.877z"/></defs><clipPath id="j"><use xlink:href="#i" overflow="visible"/></clipPath><circle clip-path="url(#j)" stroke="#EBEEA7" stroke-width="1.228" stroke-miterlimit="10" cx="259.893" cy="203.481" r="23.825" fill="none"/><defs><path id="k" d="M314.822 41.768h26.01v26.008h-26.01z"/></defs><clipPath id="l"><use xlink:href="#k" overflow="visible"/></clipPath><circle clip-path="url(#l)" stroke="#EBEEA7" stroke-width=".654" stroke-miterlimit="10" cx="327.826" cy="54.771" r="12.677" fill="none"/><defs><path id="m" d="M323.18 191.356h26.008v26.01h-26.01z"/></defs><clipPath id="n"><use xlink:href="#m" overflow="visible"/></clipPath><circle clip-path="url(#n)" stroke="#EBEEA7" stroke-width=".654" stroke-miterlimit="10" cx="336.184" cy="204.361" r="12.678" fill="none"/><defs><path id="o" d="M288.964 104.665h30.074v30.074h-30.074z"/></defs><clipPath id="p"><use xlink:href="#o" overflow="visible"/></clipPath><circle clip-path="url(#p)" stroke="#EBEEA7" stroke-width="1.228" stroke-miterlimit="10" cx="304.002" cy="119.702" r="14.422" fill="none"/><circle stroke="#fff" stroke-width="1.467" stroke-miterlimit="10" cx="349.739" cy="31.827" r="10.267" fill="none"/><circle stroke="#fff" stroke-width="1.057" stroke-miterlimit="10" cx="264.568" cy="105.279" r="7.398" fill="none"/><circle stroke="#fff" stroke-width="1.057" stroke-miterlimit="10" cx="153.545" cy="191.684" r="7.398" fill="none"/><circle stroke="#fff" stroke-width="1.057" stroke-miterlimit="10" cx="59.568" cy="119.702" r="7.398" fill="none"/><circle stroke="#fff" stroke-width="1.057" stroke-miterlimit="10" cx="97.487" cy="237.573" r="7.398" fill="none"/><path fill="#fff" d="M257.17 199.083c0 4.086-3.313 7.397-7.4 7.397-4.086 0-7.397-3.312-7.397-7.397s3.312-7.4 7.397-7.4c4.087 0 7.4 3.314 7.4 7.4M97.475 71.48c0 2.32-1.88 4.198-4.198 4.198-2.32 0-4.2-1.88-4.2-4.197 0-2.318 1.88-4.197 4.2-4.197 2.318 0 4.198 1.88 4.198 4.198M157.743 225.306c0 2.32-1.88 4.198-4.198 4.198-2.32 0-4.2-1.88-4.2-4.198 0-2.318 1.88-4.198 4.2-4.198 2.318 0 4.198 1.88 4.198 4.198M176.077 29.946c0 2.32-1.88 4.198-4.198 4.198-2.32 0-4.2-1.88-4.2-4.198 0-2.318 1.88-4.197 4.2-4.197 2.317 0 4.197 1.878 4.197 4.196"/><defs><path id="q" d="M163.42 20.065h21.762v21.763H163.42z"/></defs><clipPath id="r"><use xlink:href="#q" overflow="visible"/></clipPath><circle clip-path="url(#r)" stroke="#EBEEA7" stroke-width="1.228" stroke-miterlimit="10" cx="174.301" cy="30.946" r="10.267" fill="none"/><defs><path id="s" d="M145.532 216.425h21.763v21.762h-21.763z"/></defs><clipPath id="t"><use xlink:href="#s" overflow="visible"/></clipPath><circle clip-path="url(#t)" stroke="#EBEEA7" stroke-width="1.228" stroke-miterlimit="10" cx="156.414" cy="227.306" r="10.267" fill="none"/><defs><path id="u" d="M32.66 252.974h15.013v15.015H32.66z"/></defs><clipPath id="v"><use xlink:href="#u" overflow="visible"/></clipPath><circle clip-path="url(#v)" stroke="#EBEEA7" stroke-width="1.228" stroke-miterlimit="10" cx="40.166" cy="260.481" r="6.893" fill="none"/><defs><path id="w" d="M105.633 148.27h18.422v18.422h-18.422z"/></defs><clipPath id="x"><use xlink:href="#w" overflow="visible"/></clipPath><circle clip-path="url(#x)" stroke="#EBEEA7" stroke-width="1.228" stroke-miterlimit="10" cx="114.844" cy="157.481" r="8.597" fill="none"/></svg>