<svg xmlns="http://www.w3.org/2000/svg" xmlns:xlink="http://www.w3.org/1999/xlink" width="832.02" height="149.777" viewBox="0 0 832.02 149.777"><defs><path id="a" d="M356.507 89.23c0 33.438 27.108 60.547 60.548 60.547s60.548-27.108 60.548-60.547c0-33.44-27.107-60.55-60.548-60.55-33.44 0-60.548 27.11-60.548 60.55"/></defs><clipPath id="b"><use xlink:href="#a" overflow="visible"/></clipPath><linearGradient id="c" gradientUnits="userSpaceOnUse" x1="-82.945" y1="1030.115" x2="-81.945" y2="1030.115" gradientTransform="matrix(121.096 0 0 -121.096 10400.789 124832.039)"><stop offset="0" stop-color="#62180D"/><stop offset=".252" stop-color="#641A0E"/><stop offset=".454" stop-color="#6B2112"/><stop offset=".639" stop-color="#762B17"/><stop offset=".813" stop-color="#883A1D"/><stop offset=".978" stop-color="#9F4E23"/><stop offset="1" stop-color="#A35124"/></linearGradient><path clip-path="url(#b)" fill="url(#c)" d="M356.507 28.68h121.096v121.097H356.507z"/><defs><path id="d" d="M406.038 0c-.792 0-1.435.642-1.435 1.435V2.45c0 .21-.17.382-.383.382-.232 0-.42.188-.42.42V7.76c0 .23.188.42.42.42h.096c.158 0 .287.128.287.286v25.237c0 11.638-11.483 13.573-11.483 27.05v80.19c0 2.656 2.154 4.812 4.812 4.812h26.4c2.658 0 4.813-2.154 4.813-4.812v-80.19c0-13.477-11.482-15.412-11.482-27.05V8.563c0-.212.17-.384.383-.384.23 0 .42-.19.42-.42V3.25c0-.232-.188-.42-.42-.42-.212 0-.383-.17-.383-.38V1.364c0-.754-.61-1.365-1.365-1.365h-10.26z"/></defs><clipPath id="e"><use xlink:href="#d" overflow="visible"/></clipPath><linearGradient id="f" gradientUnits="userSpaceOnUse" x1="-82.945" y1="1006.188" x2="-81.945" y2="1006.188" gradientTransform="matrix(27.691 0 0 -27.691 2699.451 27935.188)"><stop offset="0" stop-color="#62180D"/><stop offset=".252" stop-color="#641A0E"/><stop offset=".454" stop-color="#6B2112"/><stop offset=".639" stop-color="#762B17"/><stop offset=".813" stop-color="#883A1D"/><stop offset=".978" stop-color="#9F4E23"/><stop offset="1" stop-color="#A35124"/></linearGradient><path clip-path="url(#e)" fill="url(#f)" d="M393.12 0h36.025v145.756H393.12z"/><defs><path id="g" d="M406.386 1.063V3.41s-.334.797-.564 1.14c-.108.16-.165.35-.165.54v.83c0 .193.057.38.164.54.404.6.638 1.325.638 2.102v25.14c0 6.795-3.275 10.92-6.164 14.56-2.854 3.592-5.317 6.695-5.317 12.49v80.19c0 .774.63 1.404 1.403 1.404h6.886c-.458 0-.83-.63-.83-1.405V60.754c0-5.796 1.457-8.9 3.144-12.492 1.71-3.637 3.646-7.763 3.646-14.558V8.562c0-.803-.147-1.547-.4-2.16-.048-.118-.074-.244-.074-.37V4.98c0-.127.025-.252.074-.37.148-.36.26-.764.327-1.2V1.063h-2.767z"/></defs><clipPath id="h"><use xlink:href="#g" overflow="visible"/></clipPath><linearGradient id="i" gradientUnits="userSpaceOnUse" x1="-80.683" y1="996.748" x2="-79.683" y2="996.748" gradientTransform="matrix(21.165 1.183 1.183 -21.165 921.682 21262.873)"><stop offset="0" stop-color="#fff"/><stop offset=".074" stop-color="#fff"/><stop offset=".146" stop-color="#FDF4EC"/><stop offset=".421" stop-color="#F7D8BF"/><stop offset=".665" stop-color="#F4C6A1"/><stop offset=".866" stop-color="#F2BA8F"/><stop offset="1" stop-color="#F1B689"/></linearGradient><path clip-path="url(#h)" fill="url(#i)" d="M395.02.27l22.08 1.233-7.918 141.638-22.08-1.234z"/><path fill="#CDC2AB" d="M418.884 54.523V39.218h1.38v13.926h2.25v1.38zM423.48 54.523V39.218h3.723v1.31h-2.343V46h1.698v1.308h-1.698v5.906h2.343v1.31zM430.146 54.707c-1.426 0-2.276-1.057-2.276-2.596v-2.07h1.334v2.14c0 .758.366 1.33.896 1.33.712 0 .988-.48.988-1.33 0-1.54-.528-2.965-1.355-4.688-.735-1.518-1.747-3.84-1.747-5.425 0-1.768.69-3.032 2.32-3.032 1.265 0 2.07 1.057 2.07 2.62v2.228h-1.312V41.7c0-.918-.275-1.355-.78-1.355-.598 0-.965.39-.965 1.217 0 1.793.55 2.988 1.49 4.964.875 1.86 1.61 3.63 1.61 5.24 0 2.388-1.356 2.94-2.274 2.94"/><path fill="#CDC2AB" d="M411.618 78.578h-2.847V59.804h2.848c1.1 0 2.48.564 2.48 2.96v3.918c0 1.1-.28 1.973-1.183 2.34.902.395 1.184 1.24 1.184 2.368v4.228c0 2.396-1.383 2.96-2.482 2.96m.79-15.983c0-.762-.34-1.072-.818-1.072h-1.1v6.738h.93c.592 0 .987-.48.987-1.24v-4.425zm0 8.4c0-.76-.396-1.24-.988-1.24h-.93v7.104h1.1c.48 0 .817-.312.817-1.073v-4.792zM418.217 78.805c-1.523 0-2.79-1.298-2.79-3.215V62.792c0-1.89 1.267-3.214 2.79-3.214 1.52 0 2.79 1.325 2.79 3.214V75.59c0 1.917-1.268 3.215-2.79 3.215m1.1-16.35c0-.62-.424-1.157-1.1-1.157-.705 0-1.1.536-1.1 1.156V75.93c0 .647.395 1.154 1.1 1.154.676 0 1.1-.507 1.1-1.154V62.454zM425.125 78.804c-1.55 0-2.706-1.297-2.706-3.214V59.804h1.69V75.76c0 .873.366 1.325 1.043 1.325.705 0 1.07-.452 1.07-1.325V59.804h1.607V75.59c.002 1.917-1.183 3.214-2.705 3.214M431.95 78.804c-1.52 0-2.734-1.297-2.734-3.214V62.792c0-1.89 1.213-3.214 2.734-3.214 1.522 0 2.622 1.325 2.622 3.214v3.58h-1.466v-3.918c0-.62-.395-1.156-1.072-1.156-.704 0-1.1.536-1.1 1.156V75.93c0 .647.396 1.155 1.1 1.155.678 0 1.072-.508 1.072-1.156V71.98h1.466v3.608c0 1.917-1.1 3.214-2.622 3.214"/><path fill="#CDC2AB" d="M439.845 78.578v-8.456h-2.114v8.456h-1.72V59.804h1.72v8.71h2.115v-8.71h1.692v18.774zM445.824 78.805c-1.522 0-2.79-1.298-2.79-3.215V62.792c0-1.89 1.268-3.214 2.79-3.214s2.79 1.325 2.79 3.214V75.59c0 1.917-1.268 3.215-2.79 3.215m1.1-16.35c0-.62-.424-1.157-1.1-1.157-.705 0-1.1.536-1.1 1.156V75.93c0 .647.395 1.154 1.1 1.154.676 0 1.1-.507 1.1-1.154V62.454zM454.735 78.578l-2.482-9.696-.563-2.848v12.544h-1.607V59.804h1.664l2.14 9.81.51 2.904V59.804h1.606v18.774zM460.008 78.804c-1.748 0-2.79-1.297-2.79-3.185v-2.54h1.634v2.623c0 .93.45 1.635 1.1 1.635.875 0 1.213-.592 1.213-1.635 0-1.89-.648-3.636-1.663-5.75-.902-1.86-2.144-4.708-2.144-6.654 0-2.17.847-3.722 2.848-3.722 1.55 0 2.537 1.297 2.537 3.214v2.735h-1.606v-2.68c0-1.126-.34-1.662-.96-1.662-.732 0-1.183.48-1.183 1.494 0 2.198.677 3.664 1.833 6.088 1.07 2.284 1.973 4.454 1.973 6.428 0 2.93-1.664 3.608-2.792 3.608"/><path fill="#BC915B" d="M415.71 124.283h-6.014V84.24h6.014c4.027 0 5.65 2.525 5.65 7.877v24.29c0 5.352-1.623 7.876-5.65 7.876m2.044-32.826c0-2.586-.543-3.547-2.044-3.547h-2.347v32.707h2.347c1.5 0 2.044-.964 2.044-3.488V91.456zM423.95 93.862v-1.024c.962 0 1.383-.84 1.383-2.945h-1.384V84.24h2.945v5.112c0 2.707-.722 4.51-2.946 4.51"/><path fill="#BC915B" d="M436.938 124.766c-3.247 0-5.953-2.768-5.953-6.854v-27.3c0-4.028 2.706-6.85 5.953-6.85 3.245 0 5.95 2.82 5.95 6.85v27.3c0 4.086-2.705 6.854-5.95 6.854m2.344-34.873c0-1.323-.902-2.465-2.344-2.465-1.505 0-2.346 1.142-2.346 2.465v28.74c0 1.383.84 2.465 2.346 2.465 1.44 0 2.344-1.082 2.344-2.465v-28.74zM457.08 124.585c-2.1 0-3.003-.783-3.003-3.728v-11.664c0-1.623-.844-2.646-2.104-2.646h-2.166v17.735h-3.667V84.24h6.072c2.345 0 5.29 1.203 5.29 6.314v9.32c0 2.404-.6 4.21-2.464 5.05 1.863.84 2.586 2.646 2.586 4.99v10.883c0 1.08.12 1.562.78 1.562v2.225h-1.323zm-3.184-34.392c0-1.623-.722-2.283-1.743-2.283h-2.347v15.148h2.046c1.2 0 2.044-1.02 2.044-2.645v-10.22z"/><path fill="#6E6270" d="M0 84.238l7.057-7.057 7.055 7.057-7.056 7.056zM322.906 84.242l7.055-7.055 7.057 7.055-7.056 7.056z"/><path stroke="#6E6270" stroke-miterlimit="10" fill="none" d="M7.055 84.24h329.26"/><path stroke="#6E6270" stroke-width=".622" stroke-miterlimit="10" fill="none" d="M209.07 79.536h121.764M209.07 88.477h121.764M503.535 79.536H625.3M503.535 88.477H625.3"/><path fill="#6E6270" d="M494.995 84.243l7.056-7.055 7.056 7.055-7.055 7.055zM817.902 84.245l7.056-7.055 7.055 7.055-7.055 7.056z"/><path stroke="#6E6270" stroke-miterlimit="10" fill="none" d="M502.055 84.24h329.26"/></svg>