<svg xmlns="http://www.w3.org/2000/svg" width="60.482" height="54.917" viewBox="0 0 60.482 54.917"><path fill="#F04D5D" d="M30.41 54.917c-.48-.08-.696-.46-1.026-.678-.474-.31-.905-.687-1.35-1.04-.246-.193-.482-.396-.72-.597-.664-.556-1.32-1.118-1.99-1.667-.466-.383-.95-.744-1.42-1.12-.258-.208-.507-.424-.755-.64-.576-.5-1.148-1.006-1.722-1.51-.56-.49-1.104-1.005-1.688-1.467-.904-.716-1.758-1.488-2.527-2.34-1.666-1.848-3.495-3.53-5.22-5.316-.51-.526-1.016-1.056-1.496-1.606-.407-.468-.78-.966-1.16-1.457-.59-.763-1.18-1.528-1.76-2.3-.633-.84-1.286-1.667-1.87-2.54-.556-.825-1.026-1.71-1.55-2.558-.502-.81-.96-1.64-1.347-2.507-.498-1.113-.94-2.252-1.444-3.36-.523-1.15-.705-2.392-1.04-3.592-.26-.922-.327-1.865-.326-2.82 0-.99.06-1.97.205-2.952.123-.83.28-1.654.44-2.478.04-.2.132-.39.21-.58.32-.76.643-1.517.968-2.275.22-.515.623-.908.933-1.363.27-.398.57-.777.857-1.164.02-.028.044-.054.067-.08.763-.905 1.58-1.75 2.59-2.386.19-.12.355-.277.54-.403C7.76 1.484 8.785 1 9.856.61c.466-.17.916-.385 1.417-.446.374-.047.747-.142 1.12-.15 1.052-.02 2.104-.01 3.155-.008.797 0 1.576.116 2.35.31.762.19 1.522.385 2.272.625 1.35.43 2.645.987 3.872 1.69.866.494 1.703 1.038 2.494 1.653.76.592 1.547 1.15 2.32 1.727.207.155.412.314.61.48.293.245.578.5.884.764.536-.498 1.068-.995 1.602-1.49.737-.68 1.55-1.264 2.374-1.835.367-.257.723-.53 1.09-.783.213-.146.436-.28.662-.403C37.413 2.02 38.814 1.44 40.224.89c.54-.21 1.117-.315 1.682-.457.348-.088.7-.165 1.053-.23.42-.075.844-.172 1.27-.187.856-.03 1.716 0 2.574-.015 1.15-.018 2.26.182 3.34.57.775.276 1.554.537 2.33.81.145.053.286.123.42.204.688.422 1.437.766 1.982 1.393.147.17.265.366.425.52.287.28.597.53.894.8.388.35.725.746 1.026 1.174.238.34.488.668.73 1.002.103.14.214.274.298.424.227.406.42.832.664 1.228.42.686.584 1.467.816 2.217.27.88.46 1.787.68 2.684.037.15.068.304.068.456.006 1.384.01 2.77 0 4.153 0 .22-.07.44-.1.66-.104.8-.316 1.575-.53 2.35-.235.853-.667 1.62-1.013 2.422-.34.79-.674 1.58-1.02 2.366-.644 1.454-1.333 2.88-2.264 4.178-.712.993-1.39 2.01-2.08 3.02-.33.482-.646.975-.986 1.45-.21.296-.453.566-.682.85-.598.736-1.193 1.476-1.797 2.21-.23.282-.467.56-.716.825-.645.688-1.294 1.37-1.943 2.05-.81.848-1.607 1.7-2.432 2.53-.59.594-1.186 1.187-1.833 1.714-.476.388-.88.842-1.334 1.25-.595.532-1.195 1.057-1.793 1.586-.052.046-.1.1-.15.146-.51.475-1.007.964-1.532 1.42-.547.476-1.123.92-1.684 1.38-.79.645-1.57 1.304-2.368 1.936-.88.694-1.78 1.362-2.666 2.047-.246.19-.473.407-.716.602-.146.114-.308.21-.43.292"/></svg>