<svg xmlns="http://www.w3.org/2000/svg" width="17.358" height="13.212" viewBox="0 0 17.358 13.212"><path fill="#F04D5D" d="M17.358 9.09c0 1.097-2.182 1.984-4.872 1.984s-4.872-.888-4.872-1.983c0-1.094 2.182-1.98 4.872-1.98 2.69-.002 4.872.886 4.872 1.98"/><path fill="#F04D5D" d="M7.614 11.23c0 1.094 2.18 1.982 4.873 1.982 2.69 0 4.87-.89 4.87-1.983v-1.18c0 .864-2.18 1.714-4.87 1.714s-4.873-.85-4.873-1.715v1.18zM4.872 3.968c2.69 0 4.872-.89 4.872-1.983C9.744.89 7.564 0 4.872 0 2.182 0 0 .89 0 1.984 0 3.08 2.18 3.968 4.872 3.968M9.74 7.56h.004v-.05c0 .016-.002.033-.004.05M4.872 6.153c2.69 0 4.872-.89 4.872-1.983V2.99c0 .865-2.18 1.715-4.872 1.715C2.182 4.705 0 3.855 0 2.99v1.18c0 1.095 2.18 1.983 4.872 1.983M4.872 8.416c1.157 0 2.22-.165 3.055-.438.333-.272.795-.51 1.353-.7.297-.256.464-.542.464-.845v-1.18c0 .865-2.18 1.715-4.872 1.715C2.182 6.968 0 6.118 0 5.253v1.18c0 1.095 2.18 1.983 4.872 1.983"/><path fill="#F04D5D" d="M7.35 9.525c0 .178.08.354.226.523-.147-.202-.227-.418-.227-.643 0-.16.04-.315.117-.465-.752.177-1.64.284-2.595.284C2.182 9.224 0 8.374 0 7.51v1.18c0 1.096 2.18 1.983 4.872 1.983.904 0 1.75-.1 2.477-.276v-.872z"/></svg>